<?xml version="1.0" encoding="UTF-8"?>
<!DOCTYPE svg PUBLIC "-//W3C//DTD SVG 1.1//EN" "http://www.w3.org/Graphics/SVG/1.1/DTD/svg11.dtd">
<!-- Creator: CorelDRAW 2017 -->
<svg xmlns="http://www.w3.org/2000/svg" xml:space="preserve" width="800px" height="80px" version="1.1" style="shape-rendering:geometricPrecision; text-rendering:geometricPrecision; image-rendering:optimizeQuality; fill-rule:evenodd; clip-rule:evenodd"
viewBox="0 0 800 80"
 xmlns:xlink="http://www.w3.org/1999/xlink">
 <defs>
  <style type="text/css">
   <![CDATA[
    .fil0 {fill:#373435}
    .fil1 {fill:#ED3237}
    .fil3 {fill:#EB3237}
    .fil2 {fill:#EB3237}
    .fil5 {fill:#E73237}
    .fil4 {fill:#E83237}
    .fil242 {fill:#383636}
    .fil7 {fill:#E53237}
    .fil6 {fill:#E63237}
    .fil9 {fill:#E43238}
    .fil8 {fill:#E43237}
    .fil11 {fill:#E13238}
    .fil10 {fill:#E23238}
    .fil13 {fill:#E03338}
    .fil12 {fill:#E13238}
    .fil241 {fill:#3A3738}
    .fil15 {fill:#DE3338}
    .fil14 {fill:#DE3338}
    .fil17 {fill:#DC3338}
    .fil16 {fill:#DD3338}
    .fil19 {fill:#DB3338}
    .fil18 {fill:#DC3338}
    .fil240 {fill:#3C393A}
    .fil21 {fill:#D93339}
    .fil20 {fill:#DA3338}
    .fil22 {fill:#D83339}
    .fil23 {fill:#D73339}
    .fil24 {fill:#D63339}
    .fil25 {fill:#D63339}
    .fil26 {fill:#D53339}
    .fil239 {fill:#3E3A3B}
    .fil27 {fill:#D43339}
    .fil28 {fill:#D23339}
    .fil29 {fill:#D23339}
    .fil31 {fill:#D1333A}
    .fil30 {fill:#D13339}
    .fil238 {fill:#403B3D}
    .fil33 {fill:#CF333A}
    .fil32 {fill:#CF333A}
    .fil35 {fill:#CD343A}
    .fil34 {fill:#CE343A}
    .fil37 {fill:#CC343A}
    .fil36 {fill:#CD343A}
    .fil39 {fill:#CB343A}
    .fil38 {fill:#CB343A}
    .fil237 {fill:#423C3D}
    .fil41 {fill:#C9343A}
    .fil40 {fill:#C9343A}
    .fil43 {fill:#C7343A}
    .fil42 {fill:#C8343A}
    .fil44 {fill:#C6343A}
    .fil236 {fill:#433D3E}
    .fil45 {fill:#C5343B}
    .fil46 {fill:#C5343B}
    .fil47 {fill:#C3333B}
    .fil48 {fill:#C2333B}
    .fil49 {fill:#C1333B}
    .fil50 {fill:#C1333B}
    .fil51 {fill:#C0333B}
    .fil235 {fill:#443D3F}
    .fil52 {fill:#BF333B}
    .fil53 {fill:#BE333B}
    .fil55 {fill:#BD343B}
    .fil54 {fill:#BE333B}
    .fil57 {fill:#BC343B}
    .fil56 {fill:#BC343B}
    .fil234 {fill:#463E40}
    .fil59 {fill:#BA343B}
    .fil58 {fill:#BB343B}
    .fil61 {fill:#B9343C}
    .fil60 {fill:#BA343B}
    .fil63 {fill:#B8343C}
    .fil62 {fill:#B8343C}
    .fil64 {fill:#B7343C}
    .fil233 {fill:#483E40}
    .fil65 {fill:#B6343C}
    .fil66 {fill:#B4343C}
    .fil67 {fill:#B4333C}
    .fil68 {fill:#B3343C}
    .fil69 {fill:#B3333C}
    .fil232 {fill:#493E41}
    .fil70 {fill:#B1333C}
    .fil71 {fill:#B0333C}
    .fil72 {fill:#B0333C}
    .fil73 {fill:#AF333C}
    .fil74 {fill:#AE333C}
    .fil75 {fill:#AD343C}
    .fil231 {fill:#4A3E41}
    .fil76 {fill:#AC343C}
    .fil77 {fill:#AB333C}
    .fil78 {fill:#AB343D}
    .fil79 {fill:#AA333C}
    .fil80 {fill:#A9333D}
    .fil230 {fill:#4C3E41}
    .fil82 {fill:#A7333D}
    .fil81 {fill:#A8333C}
    .fil83 {fill:#A7333D}
    .fil84 {fill:#A6333D}
    .fil85 {fill:#A5333D}
    .fil86 {fill:#A4333D}
    .fil229 {fill:#4C3E41}
    .fil87 {fill:#A3333D}
    .fil88 {fill:#A2333D}
    .fil89 {fill:#A2333D}
    .fil90 {fill:#A1333D}
    .fil91 {fill:#A0333D}
    .fil228 {fill:#4E3E41}
    .fil93 {fill:#9E333D}
    .fil92 {fill:#9F333D}
    .fil94 {fill:#9E333D}
    .fil95 {fill:#9D333D}
    .fil96 {fill:#9C333D}
    .fil97 {fill:#9B333D}
    .fil98 {fill:#9A323D}
    .fil227 {fill:#4F3E41}
    .fil99 {fill:#9A323D}
    .fil100 {fill:#99323D}
    .fil101 {fill:#98323D}
    .fil103 {fill:#97323D}
    .fil102 {fill:#97323D}
    .fil226 {fill:#503D41}
    .fil105 {fill:#96323E}
    .fil104 {fill:#96323D}
    .fil106 {fill:#95323D}
    .fil107 {fill:#94323D}
    .fil108 {fill:#94323D}
    .fil109 {fill:#93323D}
    .fil110 {fill:#92323D}
    .fil225 {fill:#513C41}
    .fil111 {fill:#91323E}
    .fil112 {fill:#90323D}
    .fil114 {fill:#8F323D}
    .fil113 {fill:#90323E}
    .fil115 {fill:#8E323E}
    .fil116 {fill:#8E323D}
    .fil224 {fill:#523C41}
    .fil117 {fill:#8D323E}
    .fil118 {fill:#8D323D}
    .fil119 {fill:#8B323D}
    .fil120 {fill:#8A313E}
    .fil121 {fill:#8A313D}
    .fil122 {fill:#89313E}
    .fil223 {fill:#523B40}
    .fil124 {fill:#88313D}
    .fil123 {fill:#88313D}
    .fil126 {fill:#87313E}
    .fil125 {fill:#87313D}
    .fil128 {fill:#86313E}
    .fil127 {fill:#86313D}
    .fil222 {fill:#543B40}
    .fil130 {fill:#84313D}
    .fil129 {fill:#85313D}
    .fil131 {fill:#84313D}
    .fil132 {fill:#83313D}
    .fil133 {fill:#82303D}
    .fil134 {fill:#81313D}
    .fil135 {fill:#81313D}
    .fil221 {fill:#543A40}
    .fil136 {fill:#80313D}
    .fil137 {fill:#80313D}
    .fil138 {fill:#7F303D}
    .fil139 {fill:#7E303D}
    .fil140 {fill:#7D303D}
    .fil220 {fill:#55393F}
    .fil141 {fill:#7D303D}
    .fil143 {fill:#7B303D}
    .fil142 {fill:#7C303D}
    .fil145 {fill:#7A303D}
    .fil144 {fill:#7B303D}
    .fil147 {fill:#792F3D}
    .fil146 {fill:#79303D}
    .fil219 {fill:#55383F}
    .fil149 {fill:#782F3D}
    .fil148 {fill:#782F3D}
    .fil151 {fill:#772F3D}
    .fil150 {fill:#772F3D}
    .fil153 {fill:#752F3D}
    .fil152 {fill:#762F3D}
    .fil218 {fill:#56373E}
    .fil155 {fill:#752F3D}
    .fil154 {fill:#752F3D}
    .fil157 {fill:#742F3D}
    .fil156 {fill:#742F3D}
    .fil158 {fill:#732F3D}
    .fil159 {fill:#722F3D}
    .fil160 {fill:#722F3D}
    .fil161 {fill:#712F3D}
    .fil217 {fill:#56363E}
    .fil162 {fill:#702F3D}
    .fil164 {fill:#702F3D}
    .fil163 {fill:#702F3D}
    .fil166 {fill:#6F2F3D}
    .fil165 {fill:#6F2F3C}
    .fil216 {fill:#57353E}
    .fil168 {fill:#6D2E3D}
    .fil167 {fill:#6E2E3D}
    .fil170 {fill:#6C2E3C}
    .fil169 {fill:#6D2E3D}
    .fil172 {fill:#6C2E3C}
    .fil171 {fill:#6C2E3C}
    .fil174 {fill:#6A2E3C}
    .fil173 {fill:#6B2E3C}
    .fil215 {fill:#57333D}
    .fil176 {fill:#692E3C}
    .fil175 {fill:#6A2E3C}
    .fil178 {fill:#692E3C}
    .fil177 {fill:#692E3C}
    .fil180 {fill:#672E3C}
    .fil179 {fill:#682E3C}
    .fil214 {fill:#58323D}
    .fil182 {fill:#662D3C}
    .fil181 {fill:#672E3C}
    .fil184 {fill:#652D3C}
    .fil183 {fill:#662D3C}
    .fil185 {fill:#652D3C}
    .fil187 {fill:#642D3C}
    .fil186 {fill:#642D3C}
    .fil213 {fill:#58303C}
    .fil189 {fill:#632D3C}
    .fil188 {fill:#632D3C}
    .fil191 {fill:#622D3C}
    .fil190 {fill:#622D3B}
    .fil193 {fill:#612C3B}
    .fil192 {fill:#612D3B}
    .fil212 {fill:#582F3B}
    .fil195 {fill:#602C3B}
    .fil194 {fill:#602C3B}
    .fil197 {fill:#5F2C3B}
    .fil196 {fill:#5F2C3B}
    .fil199 {fill:#5E2C3B}
    .fil198 {fill:#5E2C3B}
    .fil201 {fill:#5D2C3B}
    .fil200 {fill:#5D2C3B}
    .fil211 {fill:#582D3B}
    .fil203 {fill:#5C2C3B}
    .fil202 {fill:#5C2C3B}
    .fil205 {fill:#5B2C3B}
    .fil204 {fill:#5C2C3B}
    .fil206 {fill:#5B2C3B}
    .fil210 {fill:#592C3B}
    .fil207 {fill:#5A2C3B}
    .fil208 {fill:#5A2C3A}
    .fil209 {fill:#592C3B}
   ]]>
  </style>
    <clipPath id="id0">
     <path d="M0 0l800 0 0 80 -800 0 0 -80z"/>
    </clipPath>
 </defs>
 <g id="Camada_x0020_1">
  <metadata id="CorelCorpID_0Corel-Layer"/>
  <g>
   <g style="clip-path:url(#id0)">
    <polygon class="fil0" points="0,0 800,0 800,80 0,80 "/>
    <polygon id="1" class="fil1" points="397.66,39.77 402.34,39.77 402.34,40.23 397.66,40.23 "/>
    <path id="2" class="fil2" d="M398.44 39.84l0 0.32 3.12 0 0 -0.32 -3.12 0zm-2.35 -0.23l7.82 0 0 0.78 -7.82 0 0 -0.78z"/>
    <path id="3" class="fil3" d="M396.88 39.69l0 0.62 6.25 0 0 -0.62 -6.25 0zm-2.35 -0.24l10.94 0 0 1.1 -10.94 0 0 -1.1z"/>
    <path id="4" class="fil4" d="M395.31 39.53l0 0.94 9.38 0 0 -0.94 -9.38 0zm-2.34 -0.23l14.06 0 0 1.4 -14.06 0 0 -1.4z"/>
    <path id="5" class="fil5" d="M393.75 39.37l0 1.25 12.5 0 0 -1.25 -12.5 0zm-2.34 -0.23l17.18 0 0 1.72 -17.18 0 0 -1.72z"/>
    <path id="6" class="fil6" d="M392.19 39.22l0 1.56 15.62 0 0 -1.56 -15.62 0zm-2.35 -0.24l20.32 0 0 2.04 -20.32 0 0 -2.04z"/>
    <path id="7" class="fil7" d="M390.62 39.06l0 1.88 18.76 0 0 -1.88 -18.76 0zm-2.34 -0.23l23.44 0 0 2.34 -23.44 0 0 -2.34z"/>
    <path id="8" class="fil8" d="M389.06 38.91l0 2.18 21.88 0 0 -2.18 -21.88 0zm-2.34 -0.24l26.56 0 0 2.66 -26.56 0 0 -2.66z"/>
    <path id="9" class="fil9" d="M387.5 38.75l0 2.5 25 0 0 -2.5 -25 0zm-2.34 -0.23l29.68 0 0 2.96 -29.68 0 0 -2.96z"/>
    <path id="10" class="fil10" d="M385.94 38.59l0 2.82 28.12 0 0 -2.82 -28.12 0zm-2.35 -0.23l32.82 0 0 3.28 -32.82 0 0 -3.28z"/>
    <path id="11" class="fil11" d="M384.38 38.44l0 3.12 31.25 0 0 -3.12 -31.25 0zm-2.35 -0.24l35.94 0 0 3.6 -35.94 0 0 -3.6z"/>
    <path id="12" class="fil12" d="M382.81 38.28l0 3.44 34.38 0 0 -3.44 -34.38 0zm-2.34 -0.23l39.06 0 0 3.9 -39.06 0 0 -3.9z"/>
    <path id="13" class="fil13" d="M381.25 38.12l0 3.75 37.5 0 0 -3.75 -37.5 0zm-2.34 -0.23l42.18 0 0 4.22 -42.18 0 0 -4.22z"/>
    <path id="14" class="fil14" d="M379.69 37.97l0 4.06 40.62 0 0 -4.06 -40.62 0zm-2.35 -0.24l45.32 0 0 4.54 -45.32 0 0 -4.54z"/>
    <path id="15" class="fil15" d="M378.13 37.81l0 4.38 43.75 0 0 -4.38 -43.75 0zm-2.35 -0.23l48.44 0 0 4.84 -48.44 0 0 -4.84z"/>
    <path id="16" class="fil16" d="M376.56 37.66l0 4.68 46.88 0 0 -4.68 -46.88 0zm-2.34 -0.24l51.56 0 0 5.16 -51.56 0 0 -5.16z"/>
    <path id="17" class="fil17" d="M375 37.5l0 5 50 0 0 -5 -50 0zm-2.34 -0.23l54.68 0 0 5.46 -54.68 0 0 -5.46z"/>
    <path id="18" class="fil18" d="M373.44 37.34l0 5.32 53.12 0 0 -5.32 -53.12 0zm-2.35 -0.23l57.82 0 0 5.78 -57.82 0 0 -5.78z"/>
    <path id="19" class="fil19" d="M371.88 37.19l0 5.62 56.25 0 0 -5.62 -56.25 0zm-2.35 -0.24l60.94 0 0 6.1 -60.94 0 0 -6.1z"/>
    <path id="20" class="fil20" d="M370.31 37.03l0 5.94 59.38 0 0 -5.94 -59.38 0zm-2.34 -0.23l64.06 0 0 6.4 -64.06 0 0 -6.4z"/>
    <path id="21" class="fil21" d="M368.75 36.87l0 6.25 62.5 0 0 -6.25 -62.5 0zm-2.34 -0.23l67.18 0 0 6.72 -67.18 0 0 -6.72z"/>
    <path id="22" class="fil22" d="M367.19 36.72l0 6.56 65.62 0 0 -6.56 -65.62 0zm-2.35 -0.24l70.32 0 0 7.04 -70.32 0 0 -7.04z"/>
    <path id="23" class="fil23" d="M365.62 36.56l0 6.88 68.76 0 0 -6.88 -68.76 0zm-2.34 -0.23l73.44 0 0 7.34 -73.44 0 0 -7.34z"/>
    <path id="24" class="fil24" d="M364.06 36.41l0 7.18 71.88 0 0 -7.18 -71.88 0zm-2.34 -0.24l76.56 0 0 7.66 -76.56 0 0 -7.66z"/>
    <path id="25" class="fil25" d="M362.5 36.25l0 7.5 75 0 0 -7.5 -75 0zm-2.34 -0.23l79.68 0 0 7.96 -79.68 0 0 -7.96z"/>
    <path id="26" class="fil26" d="M360.94 36.09l0 7.82 78.12 0 0 -7.82 -78.12 0zm-2.35 -0.23l82.82 0 0 8.28 -82.82 0 0 -8.28z"/>
    <path id="27" class="fil27" d="M359.38 35.94l0 8.12 81.25 0 0 -8.12 -81.25 0zm-2.35 -0.24l85.94 0 0 8.6 -85.94 0 0 -8.6z"/>
    <path id="28" class="fil27" d="M357.81 35.78l0 8.44 84.38 0 0 -8.44 -84.38 0zm-2.34 -0.23l89.06 0 0 8.9 -89.06 0 0 -8.9z"/>
    <path id="29" class="fil28" d="M356.25 35.62l0 8.75 87.5 0 0 -8.75 -87.5 0zm-2.34 -0.23l92.18 0 0 9.22 -92.18 0 0 -9.22z"/>
    <path id="30" class="fil29" d="M354.69 35.47l0 9.06 90.62 0 0 -9.06 -90.62 0zm-2.35 -0.24l95.32 0 0 9.54 -95.32 0 0 -9.54z"/>
    <path id="31" class="fil30" d="M353.13 35.31l0 9.38 93.75 0 0 -9.38 -93.75 0zm-2.35 -0.23l98.44 0 0 9.84 -98.44 0 0 -9.84z"/>
    <path id="32" class="fil31" d="M351.56 35.16l0 9.68 96.88 0 0 -9.68 -96.88 0zm-2.34 -0.24l101.56 0 0 10.16 -101.56 0 0 -10.16z"/>
    <path id="33" class="fil32" d="M350 35l0 10 100 0 0 -10 -100 0zm-2.34 -0.23l104.68 0 0 10.46 -104.68 0 0 -10.46z"/>
    <path id="34" class="fil33" d="M348.44 34.84l0 10.32 103.12 0 0 -10.32 -103.12 0zm-2.35 -0.23l107.82 0 0 10.78 -107.82 0 0 -10.78z"/>
    <path id="35" class="fil34" d="M346.88 34.69l0 10.62 106.25 0 0 -10.62 -106.25 0zm-2.35 -0.24l110.94 0 0 11.1 -110.94 0 0 -11.1z"/>
    <path id="36" class="fil35" d="M345.31 34.53l0 10.94 109.38 0 0 -10.94 -109.38 0zm-2.34 -0.23l114.06 0 0 11.4 -114.06 0 0 -11.4z"/>
    <path id="37" class="fil36" d="M343.75 34.37l0 11.25 112.5 0 0 -11.25 -112.5 0zm-2.34 -0.23l117.18 0 0 11.72 -117.18 0 0 -11.72z"/>
    <path id="38" class="fil37" d="M342.19 34.22l0 11.56 115.62 0 0 -11.56 -115.62 0zm-2.35 -0.24l120.32 0 0 12.04 -120.32 0 0 -12.04z"/>
    <path id="39" class="fil38" d="M340.63 34.06l0 11.88 118.75 0 0 -11.88 -118.75 0zm-2.35 -0.23l123.44 0 0 12.34 -123.44 0 0 -12.34z"/>
    <path id="40" class="fil39" d="M339.06 33.91l0 12.18 121.88 0 0 -12.18 -121.88 0zm-2.34 -0.24l126.56 0 0 12.66 -126.56 0 0 -12.66z"/>
    <path id="41" class="fil40" d="M337.5 33.75l0 12.5 125 0 0 -12.5 -125 0zm-2.34 -0.23l129.68 0 0 12.96 -129.68 0 0 -12.96z"/>
    <path id="42" class="fil41" d="M335.94 33.59l0 12.82 128.12 0 0 -12.82 -128.12 0zm-2.35 -0.23l132.82 0 0 13.28 -132.82 0 0 -13.28z"/>
    <path id="43" class="fil42" d="M334.38 33.44l0 13.12 131.25 0 0 -13.12 -131.25 0zm-2.35 -0.24l135.94 0 0 13.6 -135.94 0 0 -13.6z"/>
    <path id="44" class="fil43" d="M332.81 33.28l0 13.44 134.38 0 0 -13.44 -134.38 0zm-2.34 -0.23l139.06 0 0 13.9 -139.06 0 0 -13.9z"/>
    <path id="45" class="fil44" d="M331.25 33.12l0 13.75 137.5 0 0 -13.75 -137.5 0zm-2.34 -0.23l142.18 0 0 14.22 -142.18 0 0 -14.22z"/>
    <path id="46" class="fil45" d="M329.69 32.97l0 14.06 140.62 0 0 -14.06 -140.62 0zm-2.35 -0.24l145.32 0 0 14.54 -145.32 0 0 -14.54z"/>
    <path id="47" class="fil46" d="M328.13 32.81l0 14.38 143.75 0 0 -14.38 -143.75 0zm-2.35 -0.23l148.44 0 0 14.84 -148.44 0 0 -14.84z"/>
    <path id="48" class="fil47" d="M326.56 32.66l0 14.68 146.88 0 0 -14.68 -146.88 0zm-2.34 -0.24l151.56 0 0 15.16 -151.56 0 0 -15.16z"/>
    <path id="49" class="fil47" d="M325 32.5l0 15 150 0 0 -15 -150 0zm-2.34 -0.23l154.68 0 0 15.46 -154.68 0 0 -15.46z"/>
    <path id="50" class="fil48" d="M323.44 32.34l0 15.32 153.12 0 0 -15.32 -153.12 0zm-2.35 -0.23l157.82 0 0 15.78 -157.82 0 0 -15.78z"/>
    <path id="51" class="fil49" d="M321.87 32.19l0 15.62 156.26 0 0 -15.62 -156.26 0zm-2.34 -0.24l160.94 0 0 16.1 -160.94 0 0 -16.1z"/>
    <path id="52" class="fil50" d="M320.31 32.03l0 15.94 159.38 0 0 -15.94 -159.38 0zm-2.34 -0.23l164.06 0 0 16.4 -164.06 0 0 -16.4z"/>
    <path id="53" class="fil51" d="M318.75 31.87l0 16.25 162.5 0 0 -16.25 -162.5 0zm-2.34 -0.23l167.18 0 0 16.72 -167.18 0 0 -16.72z"/>
    <path id="54" class="fil52" d="M317.19 31.72l0 16.56 165.62 0 0 -16.56 -165.62 0zm-2.35 -0.24l170.32 0 0 17.04 -170.32 0 0 -17.04z"/>
    <path id="55" class="fil53" d="M315.63 31.56l0 16.88 168.75 0 0 -16.88 -168.75 0zm-2.35 -0.23l173.44 0 0 17.34 -173.44 0 0 -17.34z"/>
    <path id="56" class="fil54" d="M314.06 31.41l0 17.18 171.88 0 0 -17.18 -171.88 0zm-2.34 -0.24l176.56 0 0 17.66 -176.56 0 0 -17.66z"/>
    <path id="57" class="fil55" d="M312.5 31.25l0 17.5 175 0 0 -17.5 -175 0zm-2.34 -0.23l179.68 0 0 17.96 -179.68 0 0 -17.96z"/>
    <path id="58" class="fil56" d="M310.94 31.09l0 17.82 178.12 0 0 -17.82 -178.12 0zm-2.35 -0.23l182.82 0 0 18.28 -182.82 0 0 -18.28z"/>
    <path id="59" class="fil57" d="M309.38 30.94l0 18.12 181.25 0 0 -18.12 -181.25 0zm-2.35 -0.24l185.94 0 0 18.6 -185.94 0 0 -18.6z"/>
    <path id="60" class="fil58" d="M307.81 30.78l0 18.44 184.38 0 0 -18.44 -184.38 0zm-2.34 -0.23l189.06 0 0 18.9 -189.06 0 0 -18.9z"/>
    <path id="61" class="fil59" d="M306.25 30.62l0 18.75 187.5 0 0 -18.75 -187.5 0zm-2.34 -0.23l192.18 0 0 19.22 -192.18 0 0 -19.22z"/>
    <path id="62" class="fil60" d="M304.69 30.47l0 19.06 190.62 0 0 -19.06 -190.62 0zm-2.35 -0.24l195.32 0 0 19.54 -195.32 0 0 -19.54z"/>
    <path id="63" class="fil61" d="M303.13 30.31l0 19.38 193.75 0 0 -19.38 -193.75 0zm-2.35 -0.23l198.44 0 0 19.84 -198.44 0 0 -19.84z"/>
    <path id="64" class="fil62" d="M301.56 30.16l0 19.68 196.88 0 0 -19.68 -196.88 0zm-2.34 -0.24l201.56 0 0 20.16 -201.56 0 0 -20.16z"/>
    <path id="65" class="fil63" d="M300 30l0 20 200 0 0 -20 -200 0zm-2.34 -0.23l204.68 0 0 20.46 -204.68 0 0 -20.46z"/>
    <path id="66" class="fil64" d="M298.44 29.84l0 20.32 203.12 0 0 -20.32 -203.12 0zm-2.35 -0.23l207.82 0 0 20.78 -207.82 0 0 -20.78z"/>
    <path id="67" class="fil65" d="M296.87 29.69l0 20.62 206.26 0 0 -20.62 -206.26 0zm-2.34 -0.24l210.94 0 0 21.1 -210.94 0 0 -21.1z"/>
    <path id="68" class="fil65" d="M295.31 29.53l0 20.94 209.38 0 0 -20.94 -209.38 0zm-2.34 -0.23l214.06 0 0 21.4 -214.06 0 0 -21.4z"/>
    <path id="69" class="fil66" d="M293.75 29.37l0 21.25 212.5 0 0 -21.25 -212.5 0zm-2.34 -0.23l217.18 0 0 21.72 -217.18 0 0 -21.72z"/>
    <path id="70" class="fil67" d="M292.19 29.22l0 21.56 215.62 0 0 -21.56 -215.62 0zm-2.35 -0.24l220.32 0 0 22.04 -220.32 0 0 -22.04z"/>
    <path id="71" class="fil68" d="M290.63 29.06l0 21.88 218.75 0 0 -21.88 -218.75 0zm-2.35 -0.23l223.44 0 0 22.34 -223.44 0 0 -22.34z"/>
    <path id="72" class="fil69" d="M289.06 28.91l0 22.18 221.88 0 0 -22.18 -221.88 0zm-2.34 -0.24l226.56 0 0 22.66 -226.56 0 0 -22.66z"/>
    <path id="73" class="fil70" d="M287.5 28.75l0 22.5 225 0 0 -22.5 -225 0zm-2.34 -0.23l229.68 0 0 22.96 -229.68 0 0 -22.96z"/>
    <path id="74" class="fil70" d="M285.94 28.59l0 22.82 228.12 0 0 -22.82 -228.12 0zm-2.35 -0.23l232.82 0 0 23.28 -232.82 0 0 -23.28z"/>
    <path id="75" class="fil71" d="M284.38 28.44l0 23.12 231.25 0 0 -23.12 -231.25 0zm-2.35 -0.24l235.94 0 0 23.6 -235.94 0 0 -23.6z"/>
    <path id="76" class="fil72" d="M282.81 28.28l0 23.44 234.38 0 0 -23.44 -234.38 0zm-2.34 -0.23l239.06 0 0 23.9 -239.06 0 0 -23.9z"/>
    <path id="77" class="fil73" d="M281.25 28.12l0 23.75 237.5 0 0 -23.75 -237.5 0zm-2.34 -0.23l242.18 0 0 24.22 -242.18 0 0 -24.22z"/>
    <path id="78" class="fil74" d="M279.69 27.97l0 24.06 240.62 0 0 -24.06 -240.62 0zm-2.35 -0.24l245.32 0 0 24.54 -245.32 0 0 -24.54z"/>
    <path id="79" class="fil75" d="M278.13 27.81l0 24.38 243.75 0 0 -24.38 -243.75 0zm-2.35 -0.23l248.44 0 0 24.84 -248.44 0 0 -24.84z"/>
    <path id="80" class="fil75" d="M276.56 27.66l0 24.68 246.88 0 0 -24.68 -246.88 0zm-2.34 -0.24l251.56 0 0 25.16 -251.56 0 0 -25.16z"/>
    <path id="81" class="fil76" d="M275 27.5l0 25 250 0 0 -25 -250 0zm-2.34 -0.23l254.68 0 0 25.46 -254.68 0 0 -25.46z"/>
    <path id="82" class="fil77" d="M273.44 27.34l0 25.32 253.12 0 0 -25.32 -253.12 0zm-2.35 -0.23l257.82 0 0 25.78 -257.82 0 0 -25.78z"/>
    <path id="83" class="fil78" d="M271.87 27.19l0 25.62 256.26 0 0 -25.62 -256.26 0zm-2.34 -0.24l260.94 0 0 26.1 -260.94 0 0 -26.1z"/>
    <path id="84" class="fil79" d="M270.31 27.03l0 25.94 259.38 0 0 -25.94 -259.38 0zm-2.34 -0.23l264.06 0 0 26.4 -264.06 0 0 -26.4z"/>
    <path id="85" class="fil80" d="M268.75 26.87l0 26.25 262.5 0 0 -26.25 -262.5 0zm-2.34 -0.23l267.18 0 0 26.72 -267.18 0 0 -26.72z"/>
    <path id="86" class="fil80" d="M267.19 26.72l0 26.56 265.62 0 0 -26.56 -265.62 0zm-2.35 -0.24l270.32 0 0 27.04 -270.32 0 0 -27.04z"/>
    <path id="87" class="fil81" d="M265.63 26.56l0 26.88 268.75 0 0 -26.88 -268.75 0zm-2.35 -0.23l273.44 0 0 27.34 -273.44 0 0 -27.34z"/>
    <path id="88" class="fil82" d="M264.06 26.41l0 27.18 271.88 0 0 -27.18 -271.88 0zm-2.34 -0.24l276.56 0 0 27.66 -276.56 0 0 -27.66z"/>
    <path id="89" class="fil83" d="M262.5 26.25l0 27.5 275 0 0 -27.5 -275 0zm-2.34 -0.23l279.68 0 0 27.96 -279.68 0 0 -27.96z"/>
    <path id="90" class="fil84" d="M260.94 26.09l0 27.82 278.12 0 0 -27.82 -278.12 0zm-2.35 -0.23l282.82 0 0 28.28 -282.82 0 0 -28.28z"/>
    <path id="91" class="fil85" d="M259.38 25.94l0 28.12 281.25 0 0 -28.12 -281.25 0zm-2.35 -0.24l285.94 0 0 28.6 -285.94 0 0 -28.6z"/>
    <path id="92" class="fil86" d="M257.81 25.78l0 28.44 284.38 0 0 -28.44 -284.38 0zm-2.34 -0.23l289.06 0 0 28.9 -289.06 0 0 -28.9z"/>
    <path id="93" class="fil86" d="M256.25 25.62l0 28.75 287.5 0 0 -28.75 -287.5 0zm-2.34 -0.23l292.18 0 0 29.22 -292.18 0 0 -29.22z"/>
    <path id="94" class="fil87" d="M254.69 25.47l0 29.06 290.62 0 0 -29.06 -290.62 0zm-2.35 -0.24l295.32 0 0 29.54 -295.32 0 0 -29.54z"/>
    <path id="95" class="fil88" d="M253.12 25.31l0 29.38 293.76 0 0 -29.38 -293.76 0zm-2.34 -0.23l298.44 0 0 29.84 -298.44 0 0 -29.84z"/>
    <path id="96" class="fil89" d="M251.56 25.16l0 29.68 296.88 0 0 -29.68 -296.88 0zm-2.34 -0.24l301.56 0 0 30.16 -301.56 0 0 -30.16z"/>
    <path id="97" class="fil90" d="M250 25l0 30 300 0 0 -30 -300 0zm-2.34 -0.23l304.68 0 0 30.46 -304.68 0 0 -30.46z"/>
    <path id="98" class="fil91" d="M248.44 24.84l0 30.32 303.12 0 0 -30.32 -303.12 0zm-2.35 -0.23l307.82 0 0 30.78 -307.82 0 0 -30.78z"/>
    <path id="99" class="fil91" d="M246.88 24.69l0 30.62 306.25 0 0 -30.62 -306.25 0zm-2.35 -0.24l310.94 0 0 31.1 -310.94 0 0 -31.1z"/>
    <path id="100" class="fil92" d="M245.31 24.53l0 30.94 309.38 0 0 -30.94 -309.38 0zm-2.34 -0.23l314.06 0 0 31.4 -314.06 0 0 -31.4z"/>
    <path id="101" class="fil93" d="M243.75 24.37l0 31.25 312.5 0 0 -31.25 -312.5 0zm-2.34 -0.23l317.18 0 0 31.72 -317.18 0 0 -31.72z"/>
    <path id="102" class="fil94" d="M242.19 24.22l0 31.56 315.62 0 0 -31.56 -315.62 0zm-2.35 -0.24l320.32 0 0 32.04 -320.32 0 0 -32.04z"/>
    <path id="103" class="fil95" d="M240.63 24.06l0 31.88 318.75 0 0 -31.88 -318.75 0zm-2.35 -0.23l323.44 0 0 32.34 -323.44 0 0 -32.34z"/>
    <path id="104" class="fil96" d="M239.06 23.91l0 32.18 321.88 0 0 -32.18 -321.88 0zm-2.34 -0.24l326.56 0 0 32.66 -326.56 0 0 -32.66z"/>
    <path id="105" class="fil96" d="M237.5 23.75l0 32.5 325 0 0 -32.5 -325 0zm-2.34 -0.23l329.68 0 0 32.96 -329.68 0 0 -32.96z"/>
    <path id="106" class="fil97" d="M235.94 23.59l0 32.82 328.12 0 0 -32.82 -328.12 0zm-2.35 -0.23l332.82 0 0 33.28 -332.82 0 0 -33.28z"/>
    <path id="107" class="fil98" d="M234.38 23.44l0 33.12 331.25 0 0 -33.12 -331.25 0zm-2.35 -0.24l335.94 0 0 33.6 -335.94 0 0 -33.6z"/>
    <path id="108" class="fil99" d="M232.81 23.28l0 33.44 334.38 0 0 -33.44 -334.38 0zm-2.34 -0.23l339.06 0 0 33.9 -339.06 0 0 -33.9z"/>
    <path id="109" class="fil100" d="M231.25 23.12l0 33.75 337.5 0 0 -33.75 -337.5 0zm-2.34 -0.23l342.18 0 0 34.22 -342.18 0 0 -34.22z"/>
    <path id="110" class="fil101" d="M229.69 22.97l0 34.06 340.62 0 0 -34.06 -340.62 0zm-2.35 -0.24l345.32 0 0 34.54 -345.32 0 0 -34.54z"/>
    <path id="111" class="fil102" d="M228.12 22.81l0 34.38 343.76 0 0 -34.38 -343.76 0zm-2.34 -0.23l348.44 0 0 34.84 -348.44 0 0 -34.84z"/>
    <path id="112" class="fil103" d="M226.56 22.66l0 34.68 346.88 0 0 -34.68 -346.88 0zm-2.34 -0.24l351.56 0 0 35.16 -351.56 0 0 -35.16z"/>
    <path id="113" class="fil104" d="M225 22.5l0 35 350 0 0 -35 -350 0zm-2.34 -0.23l354.68 0 0 35.46 -354.68 0 0 -35.46z"/>
    <path id="114" class="fil105" d="M223.44 22.34l0 35.32 353.12 0 0 -35.32 -353.12 0zm-2.35 -0.23l357.82 0 0 35.78 -357.82 0 0 -35.78z"/>
    <path id="115" class="fil106" d="M221.88 22.19l0 35.62 356.25 0 0 -35.62 -356.25 0zm-2.35 -0.24l360.94 0 0 36.1 -360.94 0 0 -36.1z"/>
    <path id="116" class="fil107" d="M220.31 22.03l0 35.94 359.38 0 0 -35.94 -359.38 0zm-2.34 -0.23l364.06 0 0 36.4 -364.06 0 0 -36.4z"/>
    <path id="117" class="fil108" d="M218.75 21.87l0 36.25 362.5 0 0 -36.25 -362.5 0zm-2.34 -0.23l367.18 0 0 36.72 -367.18 0 0 -36.72z"/>
    <path id="118" class="fil109" d="M217.19 21.72l0 36.56 365.62 0 0 -36.56 -365.62 0zm-2.35 -0.24l370.32 0 0 37.04 -370.32 0 0 -37.04z"/>
    <path id="119" class="fil110" d="M215.63 21.56l0 36.88 368.75 0 0 -36.88 -368.75 0zm-2.35 -0.23l373.44 0 0 37.34 -373.44 0 0 -37.34z"/>
    <path id="120" class="fil110" d="M214.06 21.41l0 37.18 371.88 0 0 -37.18 -371.88 0zm-2.34 -0.24l376.56 0 0 37.66 -376.56 0 0 -37.66z"/>
    <path id="121" class="fil111" d="M212.5 21.25l0 37.5 375 0 0 -37.5 -375 0zm-2.34 -0.23l379.68 0 0 37.96 -379.68 0 0 -37.96z"/>
    <path id="122" class="fil112" d="M210.94 21.09l0 37.82 378.12 0 0 -37.82 -378.12 0zm-2.35 -0.23l382.82 0 0 38.28 -382.82 0 0 -38.28z"/>
    <path id="123" class="fil113" d="M209.38 20.94l0 38.12 381.25 0 0 -38.12 -381.25 0zm-2.35 -0.24l385.94 0 0 38.6 -385.94 0 0 -38.6z"/>
    <path id="124" class="fil114" d="M207.81 20.78l0 38.44 384.38 0 0 -38.44 -384.38 0zm-2.34 -0.23l389.06 0 0 38.9 -389.06 0 0 -38.9z"/>
    <path id="125" class="fil115" d="M206.25 20.62l0 38.75 387.5 0 0 -38.75 -387.5 0zm-2.34 -0.23l392.18 0 0 39.22 -392.18 0 0 -39.22z"/>
    <path id="126" class="fil116" d="M204.69 20.47l0 39.06 390.62 0 0 -39.06 -390.62 0zm-2.35 -0.24l395.32 0 0 39.54 -395.32 0 0 -39.54z"/>
    <path id="127" class="fil117" d="M203.12 20.31l0 39.38 393.76 0 0 -39.38 -393.76 0zm-2.34 -0.23l398.44 0 0 39.84 -398.44 0 0 -39.84z"/>
    <path id="128" class="fil118" d="M201.56 20.16l0 39.68 396.88 0 0 -39.68 -396.88 0zm-2.34 -0.24l401.56 0 0 40.16 -401.56 0 0 -40.16z"/>
    <path id="129" class="fil119" d="M200 20l0 40 400 0 0 -40 -400 0zm-2.34 -0.23l404.68 0 0 40.46 -404.68 0 0 -40.46z"/>
    <path id="130" class="fil119" d="M198.44 19.84l0 40.32 403.12 0 0 -40.32 -403.12 0zm-2.35 -0.23l407.82 0 0 40.78 -407.82 0 0 -40.78z"/>
    <path id="131" class="fil120" d="M196.88 19.69l0 40.62 406.25 0 0 -40.62 -406.25 0zm-2.35 -0.24l410.94 0 0 41.1 -410.94 0 0 -41.1z"/>
    <path id="132" class="fil121" d="M195.31 19.53l0 40.94 409.38 0 0 -40.94 -409.38 0zm-2.34 -0.23l414.06 0 0 41.4 -414.06 0 0 -41.4z"/>
    <path id="133" class="fil122" d="M193.75 19.37l0 41.25 412.5 0 0 -41.25 -412.5 0zm-2.34 -0.23l417.18 0 0 41.72 -417.18 0 0 -41.72z"/>
    <path id="134" class="fil123" d="M192.19 19.22l0 41.56 415.62 0 0 -41.56 -415.62 0zm-2.35 -0.24l420.32 0 0 42.04 -420.32 0 0 -42.04z"/>
    <path id="135" class="fil124" d="M190.63 19.06l0 41.88 418.75 0 0 -41.88 -418.75 0zm-2.35 -0.23l423.44 0 0 42.34 -423.44 0 0 -42.34z"/>
    <path id="136" class="fil125" d="M189.06 18.91l0 42.18 421.88 0 0 -42.18 -421.88 0zm-2.34 -0.24l426.56 0 0 42.66 -426.56 0 0 -42.66z"/>
    <path id="137" class="fil126" d="M187.5 18.75l0 42.5 425 0 0 -42.5 -425 0zm-2.34 -0.23l429.68 0 0 42.96 -429.68 0 0 -42.96z"/>
    <path id="138" class="fil127" d="M185.94 18.59l0 42.82 428.12 0 0 -42.82 -428.12 0zm-2.35 -0.23l432.82 0 0 43.28 -432.82 0 0 -43.28z"/>
    <path id="139" class="fil128" d="M184.37 18.44l0 43.12 431.26 0 0 -43.12 -431.26 0zm-2.34 -0.24l435.94 0 0 43.6 -435.94 0 0 -43.6z"/>
    <path id="140" class="fil129" d="M182.81 18.28l0 43.44 434.38 0 0 -43.44 -434.38 0zm-2.34 -0.23l439.06 0 0 43.9 -439.06 0 0 -43.9z"/>
    <path id="141" class="fil130" d="M181.25 18.12l0 43.75 437.5 0 0 -43.75 -437.5 0zm-2.34 -0.23l442.18 0 0 44.22 -442.18 0 0 -44.22z"/>
    <path id="142" class="fil131" d="M179.69 17.97l0 44.06 440.62 0 0 -44.06 -440.62 0zm-2.35 -0.24l445.32 0 0 44.54 -445.32 0 0 -44.54z"/>
    <path id="143" class="fil132" d="M178.12 17.81l0 44.38 443.76 0 0 -44.38 -443.76 0zm-2.34 -0.23l448.44 0 0 44.84 -448.44 0 0 -44.84z"/>
    <path id="144" class="fil133" d="M176.56 17.66l0 44.68 446.88 0 0 -44.68 -446.88 0zm-2.34 -0.24l451.56 0 0 45.16 -451.56 0 0 -45.16z"/>
    <path id="145" class="fil133" d="M175 17.5l0 45 450 0 0 -45 -450 0zm-2.34 -0.23l454.68 0 0 45.46 -454.68 0 0 -45.46z"/>
    <path id="146" class="fil134" d="M173.44 17.34l0 45.32 453.12 0 0 -45.32 -453.12 0zm-2.35 -0.23l457.82 0 0 45.78 -457.82 0 0 -45.78z"/>
    <path id="147" class="fil135" d="M171.88 17.19l0 45.62 456.25 0 0 -45.62 -456.25 0zm-2.35 -0.24l460.94 0 0 46.1 -460.94 0 0 -46.1z"/>
    <path id="148" class="fil136" d="M170.31 17.03l0 45.94 459.38 0 0 -45.94 -459.38 0zm-2.34 -0.23l464.06 0 0 46.4 -464.06 0 0 -46.4z"/>
    <path id="149" class="fil137" d="M168.75 16.87l0 46.25 462.5 0 0 -46.25 -462.5 0zm-2.34 -0.23l467.18 0 0 46.72 -467.18 0 0 -46.72z"/>
    <path id="150" class="fil138" d="M167.19 16.72l0 46.56 465.62 0 0 -46.56 -465.62 0zm-2.35 -0.24l470.32 0 0 47.04 -470.32 0 0 -47.04z"/>
    <path id="151" class="fil138" d="M165.63 16.56l0 46.88 468.75 0 0 -46.88 -468.75 0zm-2.35 -0.23l473.44 0 0 47.34 -473.44 0 0 -47.34z"/>
    <path id="152" class="fil139" d="M164.06 16.41l0 47.18 471.88 0 0 -47.18 -471.88 0zm-2.34 -0.24l476.56 0 0 47.66 -476.56 0 0 -47.66z"/>
    <path id="153" class="fil140" d="M162.5 16.25l0 47.5 475 0 0 -47.5 -475 0zm-2.34 -0.23l479.68 0 0 47.96 -479.68 0 0 -47.96z"/>
    <path id="154" class="fil141" d="M160.94 16.09l0 47.82 478.12 0 0 -47.82 -478.12 0zm-2.35 -0.23l482.82 0 0 48.28 -482.82 0 0 -48.28z"/>
    <path id="155" class="fil142" d="M159.37 15.94l0 48.12 481.26 0 0 -48.12 -481.26 0zm-2.34 -0.24l485.94 0 0 48.6 -485.94 0 0 -48.6z"/>
    <path id="156" class="fil143" d="M157.81 15.78l0 48.44 484.38 0 0 -48.44 -484.38 0zm-2.34 -0.23l489.06 0 0 48.9 -489.06 0 0 -48.9z"/>
    <path id="157" class="fil144" d="M156.25 15.62l0 48.75 487.5 0 0 -48.75 -487.5 0zm-2.34 -0.23l492.18 0 0 49.22 -492.18 0 0 -49.22z"/>
    <path id="158" class="fil145" d="M154.69 15.47l0 49.06 490.62 0 0 -49.06 -490.62 0zm-2.35 -0.24l495.32 0 0 49.54 -495.32 0 0 -49.54z"/>
    <path id="159" class="fil146" d="M153.12 15.31l0 49.38 493.76 0 0 -49.38 -493.76 0zm-2.34 -0.23l498.44 0 0 49.84 -498.44 0 0 -49.84z"/>
    <path id="160" class="fil147" d="M151.56 15.16l0 49.68 496.88 0 0 -49.68 -496.88 0zm-2.34 -0.24l501.56 0 0 50.16 -501.56 0 0 -50.16z"/>
    <path id="161" class="fil148" d="M150 15l0 50 500 0 0 -50 -500 0zm-2.34 -0.23l504.68 0 0 50.46 -504.68 0 0 -50.46z"/>
    <path id="162" class="fil149" d="M148.44 14.84l0 50.32 503.12 0 0 -50.32 -503.12 0zm-2.35 -0.23l507.82 0 0 50.78 -507.82 0 0 -50.78z"/>
    <path id="163" class="fil150" d="M146.88 14.69l0 50.62 506.25 0 0 -50.62 -506.25 0zm-2.35 -0.24l510.94 0 0 51.1 -510.94 0 0 -51.1z"/>
    <path id="164" class="fil151" d="M145.31 14.53l0 50.94 509.38 0 0 -50.94 -509.38 0zm-2.34 -0.23l514.06 0 0 51.4 -514.06 0 0 -51.4z"/>
    <path id="165" class="fil152" d="M143.75 14.37l0 51.25 512.5 0 0 -51.25 -512.5 0zm-2.34 -0.23l517.18 0 0 51.72 -517.18 0 0 -51.72z"/>
    <path id="166" class="fil153" d="M142.19 14.22l0 51.56 515.62 0 0 -51.56 -515.62 0zm-2.35 -0.24l520.32 0 0 52.04 -520.32 0 0 -52.04z"/>
    <path id="167" class="fil154" d="M140.62 14.06l0 51.88 518.76 0 0 -51.88 -518.76 0zm-2.34 -0.23l523.44 0 0 52.34 -523.44 0 0 -52.34z"/>
    <path id="168" class="fil155" d="M139.06 13.91l0 52.18 521.88 0 0 -52.18 -521.88 0zm-2.34 -0.24l526.56 0 0 52.66 -526.56 0 0 -52.66z"/>
    <path id="169" class="fil156" d="M137.5 13.75l0 52.5 525 0 0 -52.5 -525 0zm-2.34 -0.23l529.68 0 0 52.96 -529.68 0 0 -52.96z"/>
    <path id="170" class="fil157" d="M135.94 13.59l0 52.82 528.12 0 0 -52.82 -528.12 0zm-2.35 -0.23l532.82 0 0 53.28 -532.82 0 0 -53.28z"/>
    <path id="171" class="fil158" d="M134.37 13.44l0 53.12 531.26 0 0 -53.12 -531.26 0zm-2.34 -0.24l535.94 0 0 53.6 -535.94 0 0 -53.6z"/>
    <path id="172" class="fil159" d="M132.81 13.28l0 53.44 534.38 0 0 -53.44 -534.38 0zm-2.34 -0.23l539.06 0 0 53.9 -539.06 0 0 -53.9z"/>
    <path id="173" class="fil160" d="M131.25 13.12l0 53.75 537.5 0 0 -53.75 -537.5 0zm-2.34 -0.23l542.18 0 0 54.22 -542.18 0 0 -54.22z"/>
    <path id="174" class="fil161" d="M129.69 12.97l0 54.06 540.62 0 0 -54.06 -540.62 0zm-2.35 -0.24l545.32 0 0 54.54 -545.32 0 0 -54.54z"/>
    <path id="175" class="fil162" d="M128.13 12.81l0 54.38 543.75 0 0 -54.38 -543.75 0zm-2.35 -0.23l548.44 0 0 54.84 -548.44 0 0 -54.84z"/>
    <path id="176" class="fil163" d="M126.56 12.66l0 54.68 546.88 0 0 -54.68 -546.88 0zm-2.34 -0.24l551.56 0 0 55.16 -551.56 0 0 -55.16z"/>
    <path id="177" class="fil164" d="M125 12.5l0 55 550 0 0 -55 -550 0zm-2.34 -0.23l554.68 0 0 55.46 -554.68 0 0 -55.46z"/>
    <path id="178" class="fil165" d="M123.44 12.34l0 55.32 553.12 0 0 -55.32 -553.12 0zm-2.35 -0.23l557.82 0 0 55.78 -557.82 0 0 -55.78z"/>
    <path id="179" class="fil166" d="M121.88 12.19l0 55.62 556.25 0 0 -55.62 -556.25 0zm-2.35 -0.24l560.94 0 0 56.1 -560.94 0 0 -56.1z"/>
    <path id="180" class="fil167" d="M120.31 12.03l0 55.94 559.38 0 0 -55.94 -559.38 0zm-2.34 -0.23l564.06 0 0 56.4 -564.06 0 0 -56.4z"/>
    <path id="181" class="fil168" d="M118.75 11.87l0 56.25 562.5 0 0 -56.25 -562.5 0zm-2.34 -0.23l567.18 0 0 56.72 -567.18 0 0 -56.72z"/>
    <path id="182" class="fil169" d="M117.19 11.72l0 56.56 565.62 0 0 -56.56 -565.62 0zm-2.35 -0.24l570.32 0 0 57.04 -570.32 0 0 -57.04z"/>
    <path id="183" class="fil170" d="M115.62 11.56l0 56.88 568.76 0 0 -56.88 -568.76 0zm-2.34 -0.23l573.44 0 0 57.34 -573.44 0 0 -57.34z"/>
    <path id="184" class="fil171" d="M114.06 11.41l0 57.18 571.88 0 0 -57.18 -571.88 0zm-2.34 -0.24l576.56 0 0 57.66 -576.56 0 0 -57.66z"/>
    <path id="185" class="fil172" d="M112.5 11.25l0 57.5 575 0 0 -57.5 -575 0zm-2.34 -0.23l579.68 0 0 57.96 -579.68 0 0 -57.96z"/>
    <path id="186" class="fil173" d="M110.94 11.09l0 57.82 578.12 0 0 -57.82 -578.12 0zm-2.35 -0.23l582.82 0 0 58.28 -582.82 0 0 -58.28z"/>
    <path id="187" class="fil174" d="M109.37 10.94l0 58.12 581.26 0 0 -58.12 -581.26 0zm-2.34 -0.24l585.94 0 0 58.6 -585.94 0 0 -58.6z"/>
    <path id="188" class="fil175" d="M107.81 10.78l0 58.44 584.38 0 0 -58.44 -584.38 0zm-2.34 -0.23l589.06 0 0 58.9 -589.06 0 0 -58.9z"/>
    <path id="189" class="fil176" d="M106.25 10.62l0 58.75 587.5 0 0 -58.75 -587.5 0zm-2.34 -0.23l592.18 0 0 59.22 -592.18 0 0 -59.22z"/>
    <path id="190" class="fil177" d="M104.69 10.47l0 59.06 590.62 0 0 -59.06 -590.62 0zm-2.35 -0.24l595.32 0 0 59.54 -595.32 0 0 -59.54z"/>
    <path id="191" class="fil178" d="M103.13 10.31l0 59.38 593.75 0 0 -59.38 -593.75 0zm-2.35 -0.23l598.44 0 0 59.84 -598.44 0 0 -59.84z"/>
    <path id="192" class="fil179" d="M101.56 10.16l0 59.68 596.88 0 0 -59.68 -596.88 0zm-2.34 -0.24l601.56 0 0 60.16 -601.56 0 0 -60.16z"/>
    <path id="193" class="fil180" d="M100 10l0 60 600 0 0 -60 -600 0zm-2.34 -0.23l604.68 0 0 60.46 -604.68 0 0 -60.46z"/>
    <path id="194" class="fil181" d="M98.44 9.84l0 60.32 603.12 0 0 -60.32 -603.12 0zm-2.35 -0.23l607.82 0 0 60.78 -607.82 0 0 -60.78z"/>
    <path id="195" class="fil182" d="M96.88 9.69l0 60.62 606.25 0 0 -60.62 -606.25 0zm-2.35 -0.24l610.94 0 0 61.1 -610.94 0 0 -61.1z"/>
    <path id="196" class="fil183" d="M95.31 9.53l0 60.94 609.38 0 0 -60.94 -609.38 0zm-2.34 -0.23l614.06 0 0 61.4 -614.06 0 0 -61.4z"/>
    <path id="197" class="fil184" d="M93.75 9.37l0 61.25 612.5 0 0 -61.25 -612.5 0zm-2.34 -0.23l617.18 0 0 61.72 -617.18 0 0 -61.72z"/>
    <path id="198" class="fil185" d="M92.19 9.22l0 61.56 615.62 0 0 -61.56 -615.62 0zm-2.35 -0.24l620.32 0 0 62.04 -620.32 0 0 -62.04z"/>
    <path id="199" class="fil186" d="M90.62 9.06l0 61.88 618.76 0 0 -61.88 -618.76 0zm-2.34 -0.23l623.44 0 0 62.34 -623.44 0 0 -62.34z"/>
    <path id="200" class="fil187" d="M89.06 8.91l0 62.18 621.88 0 0 -62.18 -621.88 0zm-2.34 -0.24l626.56 0 0 62.66 -626.56 0 0 -62.66z"/>
    <path id="201" class="fil188" d="M87.5 8.75l0 62.5 625 0 0 -62.5 -625 0zm-2.34 -0.23l629.68 0 0 62.96 -629.68 0 0 -62.96z"/>
    <path id="202" class="fil189" d="M85.94 8.59l0 62.82 628.12 0 0 -62.82 -628.12 0zm-2.35 -0.23l632.82 0 0 63.28 -632.82 0 0 -63.28z"/>
    <path id="203" class="fil190" d="M84.37 8.44l0 63.12 631.26 0 0 -63.12 -631.26 0zm-2.34 -0.24l635.94 0 0 63.6 -635.94 0 0 -63.6z"/>
    <path id="204" class="fil191" d="M82.81 8.28l0 63.44 634.38 0 0 -63.44 -634.38 0zm-2.34 -0.23l639.06 0 0 63.9 -639.06 0 0 -63.9z"/>
    <path id="205" class="fil192" d="M81.25 8.12l0 63.75 637.5 0 0 -63.75 -637.5 0zm-2.34 -0.23l642.18 0 0 64.22 -642.18 0 0 -64.22z"/>
    <path id="206" class="fil193" d="M79.69 7.97l0 64.06 640.62 0 0 -64.06 -640.62 0zm-2.35 -0.24l645.32 0 0 64.54 -645.32 0 0 -64.54z"/>
    <path id="207" class="fil194" d="M78.13 7.81l0 64.38 643.75 0 0 -64.38 -643.75 0zm-2.35 -0.23l648.44 0 0 64.84 -648.44 0 0 -64.84z"/>
    <path id="208" class="fil195" d="M76.56 7.66l0 64.68 646.88 0 0 -64.68 -646.88 0zm-2.34 -0.24l651.56 0 0 65.16 -651.56 0 0 -65.16z"/>
    <path id="209" class="fil196" d="M75 7.5l0 65 650 0 0 -65 -650 0zm-2.34 -0.23l654.68 0 0 65.46 -654.68 0 0 -65.46z"/>
    <path id="210" class="fil197" d="M73.44 7.34l0 65.32 653.12 0 0 -65.32 -653.12 0zm-2.35 -0.23l657.82 0 0 65.78 -657.82 0 0 -65.78z"/>
    <path id="211" class="fil198" d="M71.87 7.19l0 65.62 656.26 0 0 -65.62 -656.26 0zm-2.34 -0.24l660.94 0 0 66.1 -660.94 0 0 -66.1z"/>
    <path id="212" class="fil199" d="M70.31 7.03l0 65.94 659.38 0 0 -65.94 -659.38 0zm-2.34 -0.23l664.06 0 0 66.4 -664.06 0 0 -66.4z"/>
    <path id="213" class="fil200" d="M68.75 6.87l0 66.25 662.5 0 0 -66.25 -662.5 0zm-2.34 -0.23l667.18 0 0 66.72 -667.18 0 0 -66.72z"/>
    <path id="214" class="fil201" d="M67.19 6.72l0 66.56 665.62 0 0 -66.56 -665.62 0zm-2.35 -0.24l670.32 0 0 67.04 -670.32 0 0 -67.04z"/>
    <path id="215" class="fil202" d="M65.62 6.56l0 66.88 668.76 0 0 -66.88 -668.76 0zm-2.34 -0.23l673.44 0 0 67.34 -673.44 0 0 -67.34z"/>
    <path id="216" class="fil203" d="M64.06 6.41l0 67.18 671.88 0 0 -67.18 -671.88 0zm-2.34 -0.24l676.56 0 0 67.66 -676.56 0 0 -67.66z"/>
    <path id="217" class="fil204" d="M62.5 6.25l0 67.5 675 0 0 -67.5 -675 0zm-2.34 -0.23l679.68 0 0 67.96 -679.68 0 0 -67.96z"/>
    <path id="218" class="fil205" d="M60.94 6.09l0 67.82 678.12 0 0 -67.82 -678.12 0zm-2.35 -0.23l682.82 0 0 68.28 -682.82 0 0 -68.28z"/>
    <path id="219" class="fil206" d="M59.37 5.94l0 68.12 681.26 0 0 -68.12 -681.26 0zm-2.34 -0.24l685.94 0 0 68.6 -685.94 0 0 -68.6z"/>
    <path id="220" class="fil207" d="M57.81 5.78l0 68.44 684.38 0 0 -68.44 -684.38 0zm-2.34 -0.23l689.06 0 0 68.9 -689.06 0 0 -68.9z"/>
    <path id="221" class="fil208" d="M56.25 5.62l0 68.75 687.5 0 0 -68.75 -687.5 0zm-2.34 -0.23l692.18 0 0 69.22 -692.18 0 0 -69.22z"/>
    <path id="222" class="fil209" d="M54.69 5.47l0 69.06 690.62 0 0 -69.06 -690.62 0zm-2.35 -0.24l695.32 0 0 69.54 -695.32 0 0 -69.54z"/>
    <path id="223" class="fil210" d="M53.13 5.31l0 69.38 693.75 0 0 -69.38 -693.75 0zm-2.35 -0.23l698.44 0 0 69.84 -698.44 0 0 -69.84z"/>
    <path id="224" class="fil211" d="M51.56 5.16l0 69.68 696.88 0 0 -69.68 -696.88 0zm-2.34 -0.24l701.56 0 0 70.16 -701.56 0 0 -70.16z"/>
    <path id="225" class="fil212" d="M50 5l0 70 700 0 0 -70 -700 0zm-2.34 -0.23l704.68 0 0 70.46 -704.68 0 0 -70.46z"/>
    <path id="226" class="fil213" d="M48.44 4.84l0 70.32 703.12 0 0 -70.32 -703.12 0zm-2.35 -0.23l707.82 0 0 70.78 -707.82 0 0 -70.78z"/>
    <path id="227" class="fil214" d="M46.87 4.69l0 70.62 706.26 0 0 -70.62 -706.26 0zm-2.34 -0.24l710.94 0 0 71.1 -710.94 0 0 -71.1z"/>
    <path id="228" class="fil215" d="M45.31 4.53l0 70.94 709.38 0 0 -70.94 -709.38 0zm-2.34 -0.23l714.06 0 0 71.4 -714.06 0 0 -71.4z"/>
    <path id="229" class="fil216" d="M43.75 4.37l0 71.25 712.5 0 0 -71.25 -712.5 0zm-2.34 -0.23l717.18 0 0 71.72 -717.18 0 0 -71.72z"/>
    <path id="230" class="fil217" d="M42.19 4.22l0 71.56 715.62 0 0 -71.56 -715.62 0zm-2.35 -0.24l720.32 0 0 72.04 -720.32 0 0 -72.04z"/>
    <path id="231" class="fil218" d="M40.62 4.06l0 71.88 718.76 0 0 -71.88 -718.76 0zm-2.34 -0.23l723.44 0 0 72.34 -723.44 0 0 -72.34z"/>
    <path id="232" class="fil219" d="M39.06 3.91l0 72.18 721.88 0 0 -72.18 -721.88 0zm-2.34 -0.24l726.56 0 0 72.66 -726.56 0 0 -72.66z"/>
    <path id="233" class="fil220" d="M37.5 3.75l0 72.5 725 0 0 -72.5 -725 0zm-2.34 -0.23l729.68 0 0 72.96 -729.68 0 0 -72.96z"/>
    <path id="234" class="fil221" d="M35.94 3.59l0 72.82 728.12 0 0 -72.82 -728.12 0zm-2.35 -0.23l732.82 0 0 73.28 -732.82 0 0 -73.28z"/>
    <path id="235" class="fil222" d="M34.38 3.44l0 73.12 731.25 0 0 -73.12 -731.25 0zm-2.35 -0.24l735.94 0 0 73.6 -735.94 0 0 -73.6z"/>
    <path id="236" class="fil223" d="M32.81 3.28l0 73.44 734.38 0 0 -73.44 -734.38 0zm-2.34 -0.23l739.06 0 0 73.9 -739.06 0 0 -73.9z"/>
    <path id="237" class="fil224" d="M31.25 3.12l0 73.75 737.5 0 0 -73.75 -737.5 0zm-2.34 -0.23l742.18 0 0 74.22 -742.18 0 0 -74.22z"/>
    <path id="238" class="fil225" d="M29.69 2.97l0 74.06 740.62 0 0 -74.06 -740.62 0zm-2.35 -0.24l745.32 0 0 74.54 -745.32 0 0 -74.54z"/>
    <path id="239" class="fil226" d="M28.13 2.81l0 74.38 743.75 0 0 -74.38 -743.75 0zm-2.35 -0.23l748.44 0 0 74.84 -748.44 0 0 -74.84z"/>
    <path id="240" class="fil227" d="M26.56 2.66l0 74.68 746.88 0 0 -74.68 -746.88 0zm-2.34 -0.24l751.56 0 0 75.16 -751.56 0 0 -75.16z"/>
    <path id="241" class="fil228" d="M25 2.5l0 75 750 0 0 -75 -750 0zm-2.34 -0.23l754.68 0 0 75.46 -754.68 0 0 -75.46z"/>
    <path id="242" class="fil229" d="M23.44 2.34l0 75.32 753.12 0 0 -75.32 -753.12 0zm-2.35 -0.23l757.82 0 0 75.78 -757.82 0 0 -75.78z"/>
    <path id="243" class="fil230" d="M21.87 2.19l0 75.62 756.26 0 0 -75.62 -756.26 0zm-2.34 -0.24l760.94 0 0 76.1 -760.94 0 0 -76.1z"/>
    <path id="244" class="fil231" d="M20.31 2.03l0 75.94 759.38 0 0 -75.94 -759.38 0zm-2.34 -0.23l764.06 0 0 76.4 -764.06 0 0 -76.4z"/>
    <path id="245" class="fil232" d="M18.75 1.87l0 76.25 762.5 0 0 -76.25 -762.5 0zm-2.34 -0.23l767.18 0 0 76.72 -767.18 0 0 -76.72z"/>
    <path id="246" class="fil233" d="M17.19 1.72l0 76.56 765.62 0 0 -76.56 -765.62 0zm-2.35 -0.24l770.32 0 0 77.04 -770.32 0 0 -77.04z"/>
    <path id="247" class="fil234" d="M15.62 1.56l0 76.88 768.76 0 0 -76.88 -768.76 0zm-2.34 -0.23l773.44 0 0 77.34 -773.44 0 0 -77.34z"/>
    <path id="248" class="fil235" d="M14.06 1.41l0 77.18 771.88 0 0 -77.18 -771.88 0zm-2.34 -0.24l776.56 0 0 77.66 -776.56 0 0 -77.66z"/>
    <path id="249" class="fil236" d="M12.5 1.25l0 77.5 775 0 0 -77.5 -775 0zm-2.34 -0.23l779.68 0 0 77.96 -779.68 0 0 -77.96z"/>
    <path id="250" class="fil237" d="M10.94 1.09l0 77.82 778.12 0 0 -77.82 -778.12 0zm-2.35 -0.23l782.82 0 0 78.28 -782.82 0 0 -78.28z"/>
    <path id="251" class="fil238" d="M9.38 0.94l0 78.12 781.25 0 0 -78.12 -781.25 0zm-2.35 -0.24l785.94 0 0 78.6 -785.94 0 0 -78.6z"/>
    <path id="252" class="fil239" d="M7.81 0.78l0 78.44 784.38 0 0 -78.44 -784.38 0zm-2.34 -0.23l789.06 0 0 78.9 -789.06 0 0 -78.9z"/>
    <path id="253" class="fil240" d="M6.25 0.62l0 78.75 787.5 0 0 -78.75 -787.5 0zm-2.34 -0.23l792.18 0 0 79.22 -792.18 0 0 -79.22z"/>
    <path id="254" class="fil241" d="M4.69 0.47l0 79.06 790.62 0 0 -79.06 -790.62 0zm-2.35 -0.24l795.32 0 0 79.54 -795.32 0 0 -79.54z"/>
    <path id="255" class="fil242" d="M3.12 0.31l0 79.38 793.76 0 0 -79.38 -793.76 0zm-2.34 -0.23l798.44 0 0 79.84 -798.44 0 0 -79.84z"/>
    <path id="256" class="fil0" d="M1.56 0.16l0 79.68 796.88 0 0 -79.68 -796.88 0zm-1.56 -0.16l800 0 0 80 -800 0 0 -80z"/>
   </g>
  </g>
 </g>
</svg>
